<svg xmlns="http://www.w3.org/2000/svg" viewBox="0 16.25 104.80000305175781 38" data-asc="1.075" width="104.80000305175781" height="38"><defs/><g fill="#ffffff"><g transform="translate(0, 0)"><path d="M10.75 37.50Q5.05 35.55 2.52 32.83Q0 30.10 0 26.25Q0 21.85 2.80 19.30Q5.60 16.75 10.50 16.75Q15.10 16.75 18.60 17.85Q19.65 18.20 20.32 19.17Q21 20.15 21 21.35Q21 22.20 20.25 22.65Q19.50 23.10 18.70 22.75Q14.90 21.15 11.00 21.15Q8.30 21.15 6.85 22.50Q5.40 23.85 5.40 26.25Q5.40 28.20 6.75 29.77Q8.10 31.35 10.75 32.25Q17.35 34.45 19.93 37.15Q22.50 39.85 22.50 44Q22.50 49.05 19.40 51.65Q16.30 54.25 10.25 54.25Q6.30 54.25 3.10 53.05Q0.75 52.10 0.75 49.35Q0.75 48.50 1.50 48.10Q2.25 47.70 3.00 48.10Q6.10 49.75 9.75 49.75Q17 49.75 17 44Q17 41.80 15.58 40.25Q14.15 38.70 10.75 37.50ZM46.35 40.75Q46.35 40.75 46.35 36Q46.35 31.25 39.45 31.25Q32.55 31.25 32.55 40.75Q32.55 50.25 39.45 50.25Q46.35 50.25 46.35 40.75M48.45 50.73Q48.45 50.73 46.83 52.49Q45.20 54.25 39.45 54.25Q33.70 54.25 30.45 50.73Q27.20 47.20 27.20 40.75Q27.20 34.30 30.45 30.77Q33.70 27.25 39.45 27.25Q45.20 27.25 48.45 30.77Q51.70 34.30 51.70 40.75Q51.70 47.20 48.45 50.73ZM61.88 53Q61.88 53 61.49 53.38Q61.10 53.75 60.00 53.75Q58.90 53.75 58.15 53Q57.40 52.25 57.40 51.15L57.40 18.85Q57.40 17.75 58.15 17Q58.90 16.25 60.00 16.25Q61.10 16.25 61.88 17Q62.65 17.75 62.65 18.85L62.65 39.20Q62.65 39.25 62.70 39.25L62.80 39.20L71.70 29.80Q73.65 27.75 76.50 27.75L77.05 27.75Q77.85 27.75 78.18 28.50Q78.50 29.25 77.95 29.80L68.20 39.95Q67.95 40.20 68.20 40.55L78 51.65Q78.55 52.25 78.23 53Q77.90 53.75 77.05 53.75L76.50 53.75Q73.70 53.75 71.80 51.60L62.80 41.30Q62.75 41.25 62.70 41.25Q62.65 41.25 62.65 41.30L62.65 51.15Q62.65 52.25 61.88 53ZM99.45 40.75Q99.45 40.75 99.45 36Q99.45 31.25 92.55 31.25Q85.65 31.25 85.65 40.75Q85.65 50.25 92.55 50.25Q99.45 50.25 99.45 40.75M101.55 50.73Q101.55 50.73 99.93 52.49Q98.30 54.25 92.55 54.25Q86.80 54.25 83.55 50.73Q80.30 47.20 80.30 40.75Q80.30 34.30 83.55 30.77Q86.80 27.25 92.55 27.25Q98.30 27.25 101.55 30.77Q104.80 34.30 104.80 40.75Q104.80 47.20 101.55 50.73Z"/></g></g></svg>